<svg width="64" height="64" viewBox="0 0 64 64" fill="none" xmlns="http://www.w3.org/2000/svg">
<rect width="64" height="64" rx="8" fill="#DE3A60"/>
<path d="M33 23V33L39 39M17 33H19M47 33H49M33 47V49M17 19C17 18.4696 17.2107 17.9609 17.5858 17.5858C17.9609 17.2107 18.4696 17 19 17H47C47.5304 17 48.0391 17.2107 48.4142 17.5858C48.7893 17.9609 49 18.4696 49 19V47C49 47.5304 48.7893 48.0391 48.4142 48.4142C48.0391 48.7893 47.5304 49 47 49H19C18.4696 49 17.9609 48.7893 17.5858 48.4142C17.2107 48.0391 17 47.5304 17 47V19Z" stroke="white" stroke-width="4" stroke-linecap="round" stroke-linejoin="round"/>
</svg>
